<svg width="20" height="20" viewBox="0 0 20 20" fill="none" xmlns="http://www.w3.org/2000/svg">
<path d="M16.4671 3.06641L6.29135 1.26953C5.96492 1.21209 5.62903 1.28664 5.35755 1.47681C5.08608 1.66697 4.90124 1.95717 4.8437 2.28359L2.51948 15.4867C2.49105 15.6485 2.49478 15.8142 2.53044 15.9745C2.5661 16.1348 2.633 16.2866 2.72732 16.421C2.82164 16.5554 2.94153 16.67 3.08013 16.7581C3.21873 16.8462 3.37334 16.9061 3.5351 16.9344L13.7109 18.7313C13.8727 18.7598 14.0385 18.7562 14.1989 18.7205C14.3593 18.6849 14.5111 18.6181 14.6457 18.5237C14.7802 18.4294 14.8948 18.3095 14.9829 18.1708C15.0711 18.0321 15.131 17.8775 15.1593 17.7156L17.4835 4.5125C17.5405 4.18596 17.4654 3.85017 17.2748 3.57898C17.0842 3.3078 16.7937 3.12342 16.4671 3.06641ZM10.5859 10.2781C10.5604 10.4227 10.4848 10.5537 10.3724 10.6481C10.2599 10.7425 10.1179 10.7944 9.97104 10.7945C9.93438 10.7945 9.8978 10.7914 9.86167 10.7852L6.61948 10.2125C6.4654 10.1746 6.3315 10.0795 6.24494 9.94653C6.15838 9.81354 6.12565 9.65261 6.15337 9.49637C6.1811 9.34014 6.26722 9.2003 6.39425 9.10522C6.52129 9.01014 6.67973 8.96694 6.83745 8.98438L10.0781 9.55391C10.159 9.56806 10.2363 9.59803 10.3057 9.6421C10.375 9.68617 10.435 9.74347 10.4821 9.81074C10.5293 9.878 10.5627 9.9539 10.5805 10.0341C10.5983 10.1143 10.6002 10.1972 10.5859 10.2781ZM14.2578 8.38906C14.2323 8.53351 14.1568 8.6644 14.0445 8.75881C13.9323 8.85322 13.7904 8.90513 13.6437 8.90547C13.6067 8.90552 13.5699 8.90212 13.5335 8.89531L7.04917 7.75078C6.88589 7.72188 6.74079 7.6293 6.64578 7.49341C6.55076 7.35752 6.51362 7.18945 6.54253 7.02617C6.57143 6.8629 6.66401 6.71779 6.7999 6.62278C6.93579 6.52777 7.10386 6.49063 7.26714 6.51953L13.7515 7.66484C13.8325 7.67891 13.9099 7.70881 13.9793 7.75284C14.0488 7.79687 14.1088 7.85417 14.1561 7.92144C14.2033 7.98871 14.2368 8.06464 14.2547 8.14489C14.2725 8.22513 14.2744 8.3081 14.2601 8.38906H14.2578ZM14.6914 5.92656C14.6658 6.07115 14.5903 6.20213 14.4778 6.29656C14.3654 6.39098 14.2233 6.44282 14.0765 6.44297C14.0399 6.4429 14.0033 6.43977 13.9671 6.43359L7.48276 5.28828C7.40007 5.27611 7.32066 5.24748 7.24923 5.20408C7.17781 5.16068 7.11581 5.1034 7.06691 5.03562C7.018 4.96784 6.9832 4.89094 6.96454 4.80947C6.94588 4.728 6.94375 4.64361 6.95828 4.5613C6.97281 4.479 7.0037 4.40044 7.04912 4.33028C7.09454 4.26012 7.15357 4.19978 7.22272 4.15284C7.29187 4.1059 7.36974 4.0733 7.45171 4.05698C7.53368 4.04065 7.61809 4.04094 7.69995 4.05781L14.1843 5.20234C14.2654 5.21632 14.3429 5.24616 14.4124 5.29015C14.4819 5.33414 14.542 5.39142 14.5894 5.4587C14.6367 5.52598 14.6703 5.60195 14.6882 5.68223C14.7061 5.76252 14.708 5.84555 14.6937 5.92656H14.6914Z" fill="white"/>
</svg>
