<svg width="20" height="20" viewBox="0 0 20 20" fill="none" xmlns="http://www.w3.org/2000/svg">
<g clip-path="url(#clip0_1_100)">
<path d="M18.1906 0.792236H1.80933C1.53997 0.792236 1.28164 0.899239 1.09117 1.08971C0.900704 1.28017 0.793701 1.5385 0.793701 1.80786V18.1907C0.793701 18.46 0.900704 18.7184 1.09117 18.9088C1.28164 19.0993 1.53997 19.2063 1.80933 19.2063H10.625V12.0766H8.22808V9.29692H10.625V7.24692C10.625 4.8688 12.0781 3.57349 14.2 3.57349C14.916 3.57093 15.6316 3.60745 16.3437 3.68286V6.1688H14.8765C13.7218 6.1688 13.4984 6.71724 13.4984 7.52192V9.29692H16.25L15.8921 12.0766H13.4984V19.2079H18.1859C18.4551 19.2075 18.7132 19.1003 18.9036 18.9099C19.094 18.7196 19.2011 18.4615 19.2015 18.1922V1.80942C19.2019 1.5406 19.0958 1.28258 18.9063 1.09191C18.7168 0.901241 18.4594 0.793477 18.1906 0.792236Z" fill="white"/>
</g>
<defs>
<clipPath id="clip0_1_100">
<rect width="20" height="20" fill="white"/>
</clipPath>
</defs>
</svg>
