<svg width="20" height="20" viewBox="0 0 20 20" fill="none" xmlns="http://www.w3.org/2000/svg">
<path d="M16.6667 1.66666H3.33341C2.41675 1.66666 1.67508 2.41666 1.67508 3.33332L1.66675 18.3333L5.00008 15H16.6667C17.5834 15 18.3334 14.25 18.3334 13.3333V3.33332C18.3334 2.41666 17.5834 1.66666 16.6667 1.66666ZM14.1667 11.6667H5.83341C5.37508 11.6667 5.00008 11.2917 5.00008 10.8333C5.00008 10.375 5.37508 9.99999 5.83341 9.99999H14.1667C14.6251 9.99999 15.0001 10.375 15.0001 10.8333C15.0001 11.2917 14.6251 11.6667 14.1667 11.6667ZM14.1667 9.16666H5.83341C5.37508 9.16666 5.00008 8.79166 5.00008 8.33332C5.00008 7.87499 5.37508 7.49999 5.83341 7.49999H14.1667C14.6251 7.49999 15.0001 7.87499 15.0001 8.33332C15.0001 8.79166 14.6251 9.16666 14.1667 9.16666ZM14.1667 6.66666H5.83341C5.37508 6.66666 5.00008 6.29166 5.00008 5.83332C5.00008 5.37499 5.37508 4.99999 5.83341 4.99999H14.1667C14.6251 4.99999 15.0001 5.37499 15.0001 5.83332C15.0001 6.29166 14.6251 6.66666 14.1667 6.66666Z" fill="white"/>
</svg>
